<svg width="960" height="1457" viewBox="0 0 960 1457" class="keymap" xmlns="http://www.w3.org/2000/svg" xmlns:xlink="http://www.w3.org/1999/xlink">
<defs>/* start glyphs */
<svg id="mdi:apple-keyboard-control">
<svg xmlns="http://www.w3.org/2000/svg" id="mdi-apple-keyboard-control" viewBox="0 0 24 24"><path d="M19.78,11.78L18.36,13.19L12,6.83L5.64,13.19L4.22,11.78L12,4L19.78,11.78Z" /></svg>
</svg>
<svg id="mdi:apple-keyboard-shift">
<svg xmlns="http://www.w3.org/2000/svg" id="mdi-apple-keyboard-shift" viewBox="0 0 24 24"><path d="M15,18V12H17.17L12,6.83L6.83,12H9V18H15M12,4L22,14H17V20H7V14H2L12,4Z" /></svg>
</svg>
<svg id="mdi:chevron-down">
<svg xmlns="http://www.w3.org/2000/svg" id="mdi-chevron-down" viewBox="0 0 24 24"><path d="M7.41,8.58L12,13.17L16.59,8.58L18,10L12,16L6,10L7.41,8.58Z" /></svg>
</svg>
<svg id="mdi:chevron-left">
<svg xmlns="http://www.w3.org/2000/svg" id="mdi-chevron-left" viewBox="0 0 24 24"><path d="M15.41,16.58L10.83,12L15.41,7.41L14,6L8,12L14,18L15.41,16.58Z" /></svg>
</svg>
<svg id="mdi:chevron-up">
<svg xmlns="http://www.w3.org/2000/svg" id="mdi-chevron-up" viewBox="0 0 24 24"><path d="M7.41,15.41L12,10.83L16.59,15.41L18,14L12,8L6,14L7.41,15.41Z" /></svg>
</svg>
<svg id="mdi:keyboard-backspace">
<svg xmlns="http://www.w3.org/2000/svg" id="mdi-keyboard-backspace" viewBox="0 0 24 24"><path d="M21,11H6.83L10.41,7.41L9,6L3,12L9,18L10.41,16.58L6.83,13H21V11Z" /></svg>
</svg>
<svg id="mdi:keyboard-return">
<svg xmlns="http://www.w3.org/2000/svg" id="mdi-keyboard-return" viewBox="0 0 24 24"><path d="M19,7V11H5.83L9.41,7.41L8,6L2,12L8,18L9.41,16.58L5.83,13H21V7H19Z" /></svg>
</svg>
<svg id="mdi:keyboard-space">
<svg xmlns="http://www.w3.org/2000/svg" id="mdi-keyboard-space" viewBox="0 0 24 24"><path d="M3 15H5V19H19V15H21V19C21 20.1 20.1 21 19 21H5C3.9 21 3 20.1 3 19V15Z" /></svg>
</svg>
<svg id="mdi:keyboard-tab">
<svg xmlns="http://www.w3.org/2000/svg" id="mdi-keyboard-tab" viewBox="0 0 24 24"><path d="M20,18H22V6H20M11.59,7.41L15.17,11H1V13H15.17L11.59,16.58L13,18L19,12L13,6L11.59,7.41Z" /></svg>
</svg>
</defs>/* end glyphs */
<style>/* inherit to force styles through use tags */
svg path {
    fill: inherit;
}

/* font and background color specifications */
svg.keymap {
    font-family: SFMono-Regular,Consolas,Liberation Mono,Menlo,monospace;
    font-size: 14px;
    font-kerning: normal;
    text-rendering: optimizeLegibility;
    fill: #24292e;
}

/* default key styling */
rect.key {
    fill: #f6f8fa;
}

rect.key, rect.combo {
    stroke: #c9cccf;
    stroke-width: 1;
}

/* default key side styling, only used is draw_key_sides is set */
rect.side {
    filter: brightness(90%);
}

/* color accent for combo boxes */
rect.combo, rect.combo-separate {
    fill: #cdf;
}

/* color accent for held keys */
rect.held, rect.combo.held {
    fill: #fdd;
}

/* color accent for ghost (optional) keys */
rect.ghost, rect.combo.ghost {
    stroke-dasharray: 4, 4;
    stroke-width: 2;
}

text {
    text-anchor: middle;
    dominant-baseline: middle;
}

/* styling for layer labels */
text.label {
    font-weight: bold;
    text-anchor: start;
    stroke: white;
    stroke-width: 4;
    paint-order: stroke;
}

/* styling for optional footer */
text.footer {
    text-anchor: end;
    dominant-baseline: auto;
    stroke: white;
    stroke-width: 4;
    paint-order: stroke;
}

/* styling for combo tap, and key non-tap label text */
text.combo, text.hold, text.shifted, text.left, text.right {
    font-size: 11px;
}

text.hold {
    text-anchor: middle;
    dominant-baseline: auto;
}

text.shifted {
    text-anchor: middle;
    dominant-baseline: hanging;
}

text.left {
    text-anchor: start;
}

text.right {
    text-anchor: end;
}

text.layer-activator {
    text-decoration: underline;
}

/* styling for hold/shifted label text in combo box */
text.combo.hold, text.combo.shifted, text.combo.left, text.combo.right {
    font-size: 8px;
}

/* lighter symbol for transparent keys */
text.trans {
    fill: #7b7e81;
}

/* styling for combo dendrons */
path.combo {
    stroke-width: 1;
    stroke: gray;
    fill: none;
}

/* Start Tabler Icons Cleanup */
/* cannot use height/width with glyphs */
.icon-tabler > path {
    fill: inherit;
    stroke: inherit;
    stroke-width: 2;
}
/* hide tabler's default box */
.icon-tabler > path[stroke="none"][fill="none"] {
    visibility: hidden;
}
/* End Tabler Icons Cleanup */

svg.keymap {
  font-family: Iosevka Pacman, monospace;
  font-size: 14px;
}
text.label, text.footer {
  font-size: 16px;
}
text.hold {
  font-size: 12px;
}
rect.held, rect.enter, rect.space, rect.arrow {
  fill: rgb(255, 205, 210);
}
rect.esc, rect.vim {
  fill: rgb(200, 230, 201);
}
</style>
<g transform="translate(30, 0)" class="layer-L0">
<text x="0" y="28" class="label" id="L0">L0</text>
<g transform="translate(0, 56)">
<g transform="translate(30, 52)" class="key keypos-0">
<rect rx="6" ry="6" x="-28" y="-28" width="56" height="56" class="key side"/>
<rect rx="4" ry="4" x="-22" y="-26" width="44" height="44" class="key"/>
<use href="#mdi:keyboard-tab" xlink:href="#mdi:keyboard-tab" x="-9" y="-13" height="18" width="18.0" class="key tap glyph mdi:keyboard-tab"/>
</g>
<g transform="translate(90, 52)" class="key keypos-1">
<rect rx="6" ry="6" x="-28" y="-28" width="56" height="56" class="key side"/>
<rect rx="4" ry="4" x="-22" y="-26" width="44" height="44" class="key"/>
<text x="0" y="-4" class="key tap">Q</text>
</g>
<g transform="translate(150, 38)" class="key keypos-2">
<rect rx="6" ry="6" x="-28" y="-28" width="56" height="56" class="key side"/>
<rect rx="4" ry="4" x="-22" y="-26" width="44" height="44" class="key"/>
<text x="0" y="-4" class="key tap">W</text>
</g>
<g transform="translate(210, 30)" class="key keypos-3">
<rect rx="6" ry="6" x="-28" y="-28" width="56" height="56" class="key side"/>
<rect rx="4" ry="4" x="-22" y="-26" width="44" height="44" class="key"/>
<text x="0" y="-4" class="key tap">E</text>
</g>
<g transform="translate(270, 38)" class="key keypos-4">
<rect rx="6" ry="6" x="-28" y="-28" width="56" height="56" class="key side"/>
<rect rx="4" ry="4" x="-22" y="-26" width="44" height="44" class="key"/>
<text x="0" y="-4" class="key tap">R</text>
</g>
<g transform="translate(330, 45)" class="key keypos-5">
<rect rx="6" ry="6" x="-28" y="-28" width="56" height="56" class="key side"/>
<rect rx="4" ry="4" x="-22" y="-26" width="44" height="44" class="key"/>
<text x="0" y="-4" class="key tap">T</text>
</g>
<g transform="translate(570, 45)" class="key keypos-6">
<rect rx="6" ry="6" x="-28" y="-28" width="56" height="56" class="key side"/>
<rect rx="4" ry="4" x="-22" y="-26" width="44" height="44" class="key"/>
<text x="0" y="-4" class="key tap">Y</text>
</g>
<g transform="translate(630, 38)" class="key keypos-7">
<rect rx="6" ry="6" x="-28" y="-28" width="56" height="56" class="key side"/>
<rect rx="4" ry="4" x="-22" y="-26" width="44" height="44" class="key"/>
<text x="0" y="-4" class="key tap">U</text>
</g>
<g transform="translate(690, 30)" class="key keypos-8">
<rect rx="6" ry="6" x="-28" y="-28" width="56" height="56" class="key side"/>
<rect rx="4" ry="4" x="-22" y="-26" width="44" height="44" class="key"/>
<text x="0" y="-4" class="key tap">I</text>
</g>
<g transform="translate(750, 38)" class="key keypos-9">
<rect rx="6" ry="6" x="-28" y="-28" width="56" height="56" class="key side"/>
<rect rx="4" ry="4" x="-22" y="-26" width="44" height="44" class="key"/>
<text x="0" y="-4" class="key tap">O</text>
</g>
<g transform="translate(810, 52)" class="key keypos-10">
<rect rx="6" ry="6" x="-28" y="-28" width="56" height="56" class="key side"/>
<rect rx="4" ry="4" x="-22" y="-26" width="44" height="44" class="key"/>
<text x="0" y="-4" class="key tap">P</text>
</g>
<g transform="translate(870, 52)" class="key keypos-11">
<rect rx="6" ry="6" x="-28" y="-28" width="56" height="56" class="key side"/>
<rect rx="4" ry="4" x="-22" y="-26" width="44" height="44" class="key"/>
<use href="#mdi:keyboard-backspace" xlink:href="#mdi:keyboard-backspace" x="-9" y="-13" height="18" width="18.0" class="key tap glyph mdi:keyboard-backspace"/>
</g>
<g transform="translate(30, 112)" class="key keypos-12">
<rect rx="6" ry="6" x="-28" y="-28" width="56" height="56" class="key side"/>
<rect rx="4" ry="4" x="-22" y="-26" width="44" height="44" class="key"/>
<use href="#mdi:apple-keyboard-control" xlink:href="#mdi:apple-keyboard-control" x="-9" y="-13" height="18" width="18.0" class="key tap glyph mdi:apple-keyboard-control"/>
</g>
<g transform="translate(90, 112)" class="key keypos-13">
<rect rx="6" ry="6" x="-28" y="-28" width="56" height="56" class="key side"/>
<rect rx="4" ry="4" x="-22" y="-26" width="44" height="44" class="key"/>
<text x="0" y="-4" class="key tap">A</text>
</g>
<g transform="translate(150, 98)" class="key keypos-14">
<rect rx="6" ry="6" x="-28" y="-28" width="56" height="56" class="key side"/>
<rect rx="4" ry="4" x="-22" y="-26" width="44" height="44" class="key"/>
<text x="0" y="-4" class="key tap">S</text>
</g>
<g transform="translate(210, 90)" class="key keypos-15">
<rect rx="6" ry="6" x="-28" y="-28" width="56" height="56" class="key side"/>
<rect rx="4" ry="4" x="-22" y="-26" width="44" height="44" class="key"/>
<text x="0" y="-4" class="key tap">D</text>
</g>
<g transform="translate(270, 98)" class="key keypos-16">
<rect rx="6" ry="6" x="-28" y="-28" width="56" height="56" class="key side"/>
<rect rx="4" ry="4" x="-22" y="-26" width="44" height="44" class="key"/>
<text x="0" y="-4" class="key tap">F</text>
</g>
<g transform="translate(330, 105)" class="key keypos-17">
<rect rx="6" ry="6" x="-28" y="-28" width="56" height="56" class="key side"/>
<rect rx="4" ry="4" x="-22" y="-26" width="44" height="44" class="key"/>
<text x="0" y="-4" class="key tap">G</text>
</g>
<g transform="translate(570, 105)" class="key vim keypos-18">
<rect rx="6" ry="6" x="-28" y="-28" width="56" height="56" class="key vim side"/>
<rect rx="4" ry="4" x="-22" y="-26" width="44" height="44" class="key vim"/>
<text x="0" y="-4" class="key vim tap">H</text>
</g>
<g transform="translate(630, 98)" class="key vim keypos-19">
<rect rx="6" ry="6" x="-28" y="-28" width="56" height="56" class="key vim side"/>
<rect rx="4" ry="4" x="-22" y="-26" width="44" height="44" class="key vim"/>
<text x="0" y="-4" class="key vim tap">J</text>
</g>
<g transform="translate(690, 90)" class="key vim keypos-20">
<rect rx="6" ry="6" x="-28" y="-28" width="56" height="56" class="key vim side"/>
<rect rx="4" ry="4" x="-22" y="-26" width="44" height="44" class="key vim"/>
<text x="0" y="-4" class="key vim tap">K</text>
</g>
<g transform="translate(750, 98)" class="key vim keypos-21">
<rect rx="6" ry="6" x="-28" y="-28" width="56" height="56" class="key vim side"/>
<rect rx="4" ry="4" x="-22" y="-26" width="44" height="44" class="key vim"/>
<text x="0" y="-4" class="key vim tap">L</text>
</g>
<g transform="translate(810, 112)" class="key keypos-22">
<rect rx="6" ry="6" x="-28" y="-28" width="56" height="56" class="key side"/>
<rect rx="4" ry="4" x="-22" y="-26" width="44" height="44" class="key"/>
<text x="0" y="-4" class="key tap">;</text>
</g>
<g transform="translate(870, 112)" class="key keypos-23">
<rect rx="6" ry="6" x="-28" y="-28" width="56" height="56" class="key side"/>
<rect rx="4" ry="4" x="-22" y="-26" width="44" height="44" class="key"/>
<text x="0" y="-4" class="key tap">&#x27;</text>
</g>
<g transform="translate(30, 172)" class="key keypos-24">
<rect rx="6" ry="6" x="-28" y="-28" width="56" height="56" class="key side"/>
<rect rx="4" ry="4" x="-22" y="-26" width="44" height="44" class="key"/>
<use href="#mdi:apple-keyboard-shift" xlink:href="#mdi:apple-keyboard-shift" x="-9" y="-13" height="18" width="18.0" class="key tap glyph mdi:apple-keyboard-shift"/>
</g>
<g transform="translate(90, 172)" class="key keypos-25">
<rect rx="6" ry="6" x="-28" y="-28" width="56" height="56" class="key side"/>
<rect rx="4" ry="4" x="-22" y="-26" width="44" height="44" class="key"/>
<text x="0" y="-4" class="key tap">Z</text>
</g>
<g transform="translate(150, 158)" class="key keypos-26">
<rect rx="6" ry="6" x="-28" y="-28" width="56" height="56" class="key side"/>
<rect rx="4" ry="4" x="-22" y="-26" width="44" height="44" class="key"/>
<text x="0" y="-4" class="key tap">X</text>
</g>
<g transform="translate(210, 150)" class="key keypos-27">
<rect rx="6" ry="6" x="-28" y="-28" width="56" height="56" class="key side"/>
<rect rx="4" ry="4" x="-22" y="-26" width="44" height="44" class="key"/>
<text x="0" y="-4" class="key tap">C</text>
</g>
<g transform="translate(270, 158)" class="key keypos-28">
<rect rx="6" ry="6" x="-28" y="-28" width="56" height="56" class="key side"/>
<rect rx="4" ry="4" x="-22" y="-26" width="44" height="44" class="key"/>
<text x="0" y="-4" class="key tap">V</text>
</g>
<g transform="translate(330, 165)" class="key keypos-29">
<rect rx="6" ry="6" x="-28" y="-28" width="56" height="56" class="key side"/>
<rect rx="4" ry="4" x="-22" y="-26" width="44" height="44" class="key"/>
<text x="0" y="-4" class="key tap">B</text>
</g>
<g transform="translate(570, 165)" class="key keypos-30">
<rect rx="6" ry="6" x="-28" y="-28" width="56" height="56" class="key side"/>
<rect rx="4" ry="4" x="-22" y="-26" width="44" height="44" class="key"/>
<text x="0" y="-4" class="key tap">N</text>
</g>
<g transform="translate(630, 158)" class="key keypos-31">
<rect rx="6" ry="6" x="-28" y="-28" width="56" height="56" class="key side"/>
<rect rx="4" ry="4" x="-22" y="-26" width="44" height="44" class="key"/>
<text x="0" y="-4" class="key tap">M</text>
</g>
<g transform="translate(690, 150)" class="key keypos-32">
<rect rx="6" ry="6" x="-28" y="-28" width="56" height="56" class="key side"/>
<rect rx="4" ry="4" x="-22" y="-26" width="44" height="44" class="key"/>
<text x="0" y="-4" class="key tap">,</text>
</g>
<g transform="translate(750, 158)" class="key keypos-33">
<rect rx="6" ry="6" x="-28" y="-28" width="56" height="56" class="key side"/>
<rect rx="4" ry="4" x="-22" y="-26" width="44" height="44" class="key"/>
<text x="0" y="-4" class="key tap">.</text>
</g>
<g transform="translate(810, 172)" class="key keypos-34">
<rect rx="6" ry="6" x="-28" y="-28" width="56" height="56" class="key side"/>
<rect rx="4" ry="4" x="-22" y="-26" width="44" height="44" class="key"/>
<text x="0" y="-4" class="key tap">/</text>
</g>
<g transform="translate(870, 172)" class="key keypos-35">
<rect rx="6" ry="6" x="-28" y="-28" width="56" height="56" class="key side"/>
<rect rx="4" ry="4" x="-22" y="-26" width="44" height="44" class="key"/>
<text x="0" y="-4" class="key tap">ESC</text>
</g>
<g transform="translate(240, 219)" class="key keypos-36">
<rect rx="6" ry="6" x="-28" y="-28" width="56" height="56" class="key side"/>
<rect rx="4" ry="4" x="-22" y="-26" width="44" height="44" class="key"/>
<text x="0" y="-4" class="key tap">LGUI</text>
</g>
<g transform="translate(306, 228) rotate(15.0)" class="key keypos-37">
<rect rx="6" ry="6" x="-28" y="-28" width="56" height="56" class="key side"/>
<rect rx="4" ry="4" x="-22" y="-26" width="44" height="44" class="key"/>
<a href="#L1">
<text x="0" y="-4" class="key tap layer-activator">L1</text>
</a></g>
<g transform="translate(376, 240) rotate(30.0)" class="key space keypos-38">
<rect rx="6" ry="6" x="-28" y="-43" width="56" height="86" class="key space side"/>
<rect rx="4" ry="4" x="-22" y="-41" width="44" height="74" class="key space"/>
<use href="#mdi:keyboard-space" xlink:href="#mdi:keyboard-space" x="-9" y="-13" height="18" width="18.0" class="key space tap glyph mdi:keyboard-space"/>
</g>
<g transform="translate(524, 240) rotate(-30.0)" class="key enter keypos-39">
<rect rx="6" ry="6" x="-28" y="-43" width="56" height="86" class="key enter side"/>
<rect rx="4" ry="4" x="-22" y="-41" width="44" height="74" class="key enter"/>
<use href="#mdi:keyboard-return" xlink:href="#mdi:keyboard-return" x="-9" y="-13" height="18" width="18.0" class="key enter tap glyph mdi:keyboard-return"/>
</g>
<g transform="translate(594, 228) rotate(-15.0)" class="key keypos-40">
<rect rx="6" ry="6" x="-28" y="-28" width="56" height="56" class="key side"/>
<rect rx="4" ry="4" x="-22" y="-26" width="44" height="44" class="key"/>
<a href="#L2">
<text x="0" y="-4" class="key tap layer-activator">L2</text>
</a></g>
<g transform="translate(660, 219)" class="key keypos-41">
<rect rx="6" ry="6" x="-28" y="-28" width="56" height="56" class="key side"/>
<rect rx="4" ry="4" x="-22" y="-26" width="44" height="44" class="key"/>
<text x="0" y="-4" class="key tap">RALT</text>
</g>
</g>
</g>
<g transform="translate(30, 350)" class="layer-L1">
<text x="0" y="28" class="label" id="L1">L1</text>
<g transform="translate(0, 56)">
<g transform="translate(30, 52)" class="key keypos-0">
<rect rx="6" ry="6" x="-28" y="-28" width="56" height="56" class="key side"/>
<rect rx="4" ry="4" x="-22" y="-26" width="44" height="44" class="key"/>
<use href="#mdi:keyboard-tab" xlink:href="#mdi:keyboard-tab" x="-9" y="-13" height="18" width="18.0" class="key tap glyph mdi:keyboard-tab"/>
</g>
<g transform="translate(90, 52)" class="key keypos-1">
<rect rx="6" ry="6" x="-28" y="-28" width="56" height="56" class="key side"/>
<rect rx="4" ry="4" x="-22" y="-26" width="44" height="44" class="key"/>
<text x="0" y="-4" class="key tap">1</text>
</g>
<g transform="translate(150, 38)" class="key keypos-2">
<rect rx="6" ry="6" x="-28" y="-28" width="56" height="56" class="key side"/>
<rect rx="4" ry="4" x="-22" y="-26" width="44" height="44" class="key"/>
<text x="0" y="-4" class="key tap">2</text>
</g>
<g transform="translate(210, 30)" class="key keypos-3">
<rect rx="6" ry="6" x="-28" y="-28" width="56" height="56" class="key side"/>
<rect rx="4" ry="4" x="-22" y="-26" width="44" height="44" class="key"/>
<text x="0" y="-4" class="key tap">3</text>
</g>
<g transform="translate(270, 38)" class="key keypos-4">
<rect rx="6" ry="6" x="-28" y="-28" width="56" height="56" class="key side"/>
<rect rx="4" ry="4" x="-22" y="-26" width="44" height="44" class="key"/>
<text x="0" y="-4" class="key tap">4</text>
</g>
<g transform="translate(330, 45)" class="key keypos-5">
<rect rx="6" ry="6" x="-28" y="-28" width="56" height="56" class="key side"/>
<rect rx="4" ry="4" x="-22" y="-26" width="44" height="44" class="key"/>
<text x="0" y="-4" class="key tap">5</text>
</g>
<g transform="translate(570, 45)" class="key keypos-6">
<rect rx="6" ry="6" x="-28" y="-28" width="56" height="56" class="key side"/>
<rect rx="4" ry="4" x="-22" y="-26" width="44" height="44" class="key"/>
<text x="0" y="-4" class="key tap">6</text>
</g>
<g transform="translate(630, 38)" class="key keypos-7">
<rect rx="6" ry="6" x="-28" y="-28" width="56" height="56" class="key side"/>
<rect rx="4" ry="4" x="-22" y="-26" width="44" height="44" class="key"/>
<text x="0" y="-4" class="key tap">7</text>
</g>
<g transform="translate(690, 30)" class="key keypos-8">
<rect rx="6" ry="6" x="-28" y="-28" width="56" height="56" class="key side"/>
<rect rx="4" ry="4" x="-22" y="-26" width="44" height="44" class="key"/>
<text x="0" y="-4" class="key tap">8</text>
</g>
<g transform="translate(750, 38)" class="key keypos-9">
<rect rx="6" ry="6" x="-28" y="-28" width="56" height="56" class="key side"/>
<rect rx="4" ry="4" x="-22" y="-26" width="44" height="44" class="key"/>
<text x="0" y="-4" class="key tap">9</text>
</g>
<g transform="translate(810, 52)" class="key keypos-10">
<rect rx="6" ry="6" x="-28" y="-28" width="56" height="56" class="key side"/>
<rect rx="4" ry="4" x="-22" y="-26" width="44" height="44" class="key"/>
<text x="0" y="-4" class="key tap">0</text>
</g>
<g transform="translate(870, 52)" class="key keypos-11">
<rect rx="6" ry="6" x="-28" y="-28" width="56" height="56" class="key side"/>
<rect rx="4" ry="4" x="-22" y="-26" width="44" height="44" class="key"/>
<use href="#mdi:keyboard-backspace" xlink:href="#mdi:keyboard-backspace" x="-9" y="-13" height="18" width="18.0" class="key tap glyph mdi:keyboard-backspace"/>
</g>
<g transform="translate(30, 112)" class="key keypos-12">
<rect rx="6" ry="6" x="-28" y="-28" width="56" height="56" class="key side"/>
<rect rx="4" ry="4" x="-22" y="-26" width="44" height="44" class="key"/>
<use href="#mdi:apple-keyboard-control" xlink:href="#mdi:apple-keyboard-control" x="-9" y="-13" height="18" width="18.0" class="key tap glyph mdi:apple-keyboard-control"/>
</g>
<g transform="translate(90, 112)" class="key keypos-13">
<rect rx="6" ry="6" x="-28" y="-28" width="56" height="56" class="key side"/>
<rect rx="4" ry="4" x="-22" y="-26" width="44" height="44" class="key"/>
</g>
<g transform="translate(150, 98)" class="key keypos-14">
<rect rx="6" ry="6" x="-28" y="-28" width="56" height="56" class="key side"/>
<rect rx="4" ry="4" x="-22" y="-26" width="44" height="44" class="key"/>
</g>
<g transform="translate(210, 90)" class="key keypos-15">
<rect rx="6" ry="6" x="-28" y="-28" width="56" height="56" class="key side"/>
<rect rx="4" ry="4" x="-22" y="-26" width="44" height="44" class="key"/>
</g>
<g transform="translate(270, 98)" class="key keypos-16">
<rect rx="6" ry="6" x="-28" y="-28" width="56" height="56" class="key side"/>
<rect rx="4" ry="4" x="-22" y="-26" width="44" height="44" class="key"/>
</g>
<g transform="translate(330, 105)" class="key keypos-17">
<rect rx="6" ry="6" x="-28" y="-28" width="56" height="56" class="key side"/>
<rect rx="4" ry="4" x="-22" y="-26" width="44" height="44" class="key"/>
</g>
<g transform="translate(570, 105)" class="key arrow keypos-18">
<rect rx="6" ry="6" x="-28" y="-28" width="56" height="56" class="key arrow side"/>
<rect rx="4" ry="4" x="-22" y="-26" width="44" height="44" class="key arrow"/>
<use href="#mdi:chevron-left" xlink:href="#mdi:chevron-left" x="-9" y="-13" height="18" width="18.0" class="key arrow tap glyph mdi:chevron-left"/>
</g>
<g transform="translate(630, 98)" class="key arrow keypos-19">
<rect rx="6" ry="6" x="-28" y="-28" width="56" height="56" class="key arrow side"/>
<rect rx="4" ry="4" x="-22" y="-26" width="44" height="44" class="key arrow"/>
<use href="#mdi:chevron-down" xlink:href="#mdi:chevron-down" x="-9" y="-13" height="18" width="18.0" class="key arrow tap glyph mdi:chevron-down"/>
</g>
<g transform="translate(690, 90)" class="key arrow keypos-20">
<rect rx="6" ry="6" x="-28" y="-28" width="56" height="56" class="key arrow side"/>
<rect rx="4" ry="4" x="-22" y="-26" width="44" height="44" class="key arrow"/>
<use href="#mdi:chevron-up" xlink:href="#mdi:chevron-up" x="-9" y="-13" height="18" width="18.0" class="key arrow tap glyph mdi:chevron-up"/>
</g>
<g transform="translate(750, 98)" class="key keypos-21">
<rect rx="6" ry="6" x="-28" y="-28" width="56" height="56" class="key side"/>
<rect rx="4" ry="4" x="-22" y="-26" width="44" height="44" class="key"/>
<text x="0" y="-4" class="key tap">RIGHT</text>
</g>
<g transform="translate(810, 112)" class="key keypos-22">
<rect rx="6" ry="6" x="-28" y="-28" width="56" height="56" class="key side"/>
<rect rx="4" ry="4" x="-22" y="-26" width="44" height="44" class="key"/>
</g>
<g transform="translate(870, 112)" class="key keypos-23">
<rect rx="6" ry="6" x="-28" y="-28" width="56" height="56" class="key side"/>
<rect rx="4" ry="4" x="-22" y="-26" width="44" height="44" class="key"/>
</g>
<g transform="translate(30, 172)" class="key keypos-24">
<rect rx="6" ry="6" x="-28" y="-28" width="56" height="56" class="key side"/>
<rect rx="4" ry="4" x="-22" y="-26" width="44" height="44" class="key"/>
<use href="#mdi:apple-keyboard-shift" xlink:href="#mdi:apple-keyboard-shift" x="-9" y="-13" height="18" width="18.0" class="key tap glyph mdi:apple-keyboard-shift"/>
</g>
<g transform="translate(90, 172)" class="key keypos-25">
<rect rx="6" ry="6" x="-28" y="-28" width="56" height="56" class="key side"/>
<rect rx="4" ry="4" x="-22" y="-26" width="44" height="44" class="key"/>
</g>
<g transform="translate(150, 158)" class="key keypos-26">
<rect rx="6" ry="6" x="-28" y="-28" width="56" height="56" class="key side"/>
<rect rx="4" ry="4" x="-22" y="-26" width="44" height="44" class="key"/>
</g>
<g transform="translate(210, 150)" class="key keypos-27">
<rect rx="6" ry="6" x="-28" y="-28" width="56" height="56" class="key side"/>
<rect rx="4" ry="4" x="-22" y="-26" width="44" height="44" class="key"/>
</g>
<g transform="translate(270, 158)" class="key keypos-28">
<rect rx="6" ry="6" x="-28" y="-28" width="56" height="56" class="key side"/>
<rect rx="4" ry="4" x="-22" y="-26" width="44" height="44" class="key"/>
</g>
<g transform="translate(330, 165)" class="key keypos-29">
<rect rx="6" ry="6" x="-28" y="-28" width="56" height="56" class="key side"/>
<rect rx="4" ry="4" x="-22" y="-26" width="44" height="44" class="key"/>
</g>
<g transform="translate(570, 165)" class="key keypos-30">
<rect rx="6" ry="6" x="-28" y="-28" width="56" height="56" class="key side"/>
<rect rx="4" ry="4" x="-22" y="-26" width="44" height="44" class="key"/>
</g>
<g transform="translate(630, 158)" class="key keypos-31">
<rect rx="6" ry="6" x="-28" y="-28" width="56" height="56" class="key side"/>
<rect rx="4" ry="4" x="-22" y="-26" width="44" height="44" class="key"/>
</g>
<g transform="translate(690, 150)" class="key keypos-32">
<rect rx="6" ry="6" x="-28" y="-28" width="56" height="56" class="key side"/>
<rect rx="4" ry="4" x="-22" y="-26" width="44" height="44" class="key"/>
</g>
<g transform="translate(750, 158)" class="key keypos-33">
<rect rx="6" ry="6" x="-28" y="-28" width="56" height="56" class="key side"/>
<rect rx="4" ry="4" x="-22" y="-26" width="44" height="44" class="key"/>
</g>
<g transform="translate(810, 172)" class="key keypos-34">
<rect rx="6" ry="6" x="-28" y="-28" width="56" height="56" class="key side"/>
<rect rx="4" ry="4" x="-22" y="-26" width="44" height="44" class="key"/>
</g>
<g transform="translate(870, 172)" class="key keypos-35">
<rect rx="6" ry="6" x="-28" y="-28" width="56" height="56" class="key side"/>
<rect rx="4" ry="4" x="-22" y="-26" width="44" height="44" class="key"/>
</g>
<g transform="translate(240, 219)" class="key keypos-36">
<rect rx="6" ry="6" x="-28" y="-28" width="56" height="56" class="key side"/>
<rect rx="4" ry="4" x="-22" y="-26" width="44" height="44" class="key"/>
<text x="0" y="-4" class="key tap">LGUI</text>
</g>
<g transform="translate(306, 228) rotate(15.0)" class="key held keypos-37">
<rect rx="6" ry="6" x="-28" y="-28" width="56" height="56" class="key held side"/>
<rect rx="4" ry="4" x="-22" y="-26" width="44" height="44" class="key held"/>
</g>
<g transform="translate(376, 240) rotate(30.0)" class="key space keypos-38">
<rect rx="6" ry="6" x="-28" y="-43" width="56" height="86" class="key space side"/>
<rect rx="4" ry="4" x="-22" y="-41" width="44" height="74" class="key space"/>
<use href="#mdi:keyboard-space" xlink:href="#mdi:keyboard-space" x="-9" y="-13" height="18" width="18.0" class="key space tap glyph mdi:keyboard-space"/>
</g>
<g transform="translate(524, 240) rotate(-30.0)" class="key enter keypos-39">
<rect rx="6" ry="6" x="-28" y="-43" width="56" height="86" class="key enter side"/>
<rect rx="4" ry="4" x="-22" y="-41" width="44" height="74" class="key enter"/>
<use href="#mdi:keyboard-return" xlink:href="#mdi:keyboard-return" x="-9" y="-13" height="18" width="18.0" class="key enter tap glyph mdi:keyboard-return"/>
</g>
<g transform="translate(594, 228) rotate(-15.0)" class="key keypos-40">
<rect rx="6" ry="6" x="-28" y="-28" width="56" height="56" class="key side"/>
<rect rx="4" ry="4" x="-22" y="-26" width="44" height="44" class="key"/>
<a href="#L3">
<text x="0" y="-4" class="key tap layer-activator">L3</text>
</a></g>
<g transform="translate(660, 219)" class="key keypos-41">
<rect rx="6" ry="6" x="-28" y="-28" width="56" height="56" class="key side"/>
<rect rx="4" ry="4" x="-22" y="-26" width="44" height="44" class="key"/>
<text x="0" y="-4" class="key tap">RALT</text>
</g>
</g>
</g>
<g transform="translate(30, 701)" class="layer-L2">
<text x="0" y="28" class="label" id="L2">L2</text>
<g transform="translate(0, 56)">
<g transform="translate(30, 52)" class="key keypos-0">
<rect rx="6" ry="6" x="-28" y="-28" width="56" height="56" class="key side"/>
<rect rx="4" ry="4" x="-22" y="-26" width="44" height="44" class="key"/>
<use href="#mdi:keyboard-tab" xlink:href="#mdi:keyboard-tab" x="-9" y="-13" height="18" width="18.0" class="key tap glyph mdi:keyboard-tab"/>
</g>
<g transform="translate(90, 52)" class="key keypos-1">
<rect rx="6" ry="6" x="-28" y="-28" width="56" height="56" class="key side"/>
<rect rx="4" ry="4" x="-22" y="-26" width="44" height="44" class="key"/>
<text x="0" y="-4" class="key tap">!</text>
</g>
<g transform="translate(150, 38)" class="key keypos-2">
<rect rx="6" ry="6" x="-28" y="-28" width="56" height="56" class="key side"/>
<rect rx="4" ry="4" x="-22" y="-26" width="44" height="44" class="key"/>
<text x="0" y="-4" class="key tap">@</text>
</g>
<g transform="translate(210, 30)" class="key keypos-3">
<rect rx="6" ry="6" x="-28" y="-28" width="56" height="56" class="key side"/>
<rect rx="4" ry="4" x="-22" y="-26" width="44" height="44" class="key"/>
<text x="0" y="-4" class="key tap">#</text>
</g>
<g transform="translate(270, 38)" class="key keypos-4">
<rect rx="6" ry="6" x="-28" y="-28" width="56" height="56" class="key side"/>
<rect rx="4" ry="4" x="-22" y="-26" width="44" height="44" class="key"/>
<text x="0" y="-4" class="key tap">$</text>
</g>
<g transform="translate(330, 45)" class="key keypos-5">
<rect rx="6" ry="6" x="-28" y="-28" width="56" height="56" class="key side"/>
<rect rx="4" ry="4" x="-22" y="-26" width="44" height="44" class="key"/>
<text x="0" y="-4" class="key tap">%</text>
</g>
<g transform="translate(570, 45)" class="key keypos-6">
<rect rx="6" ry="6" x="-28" y="-28" width="56" height="56" class="key side"/>
<rect rx="4" ry="4" x="-22" y="-26" width="44" height="44" class="key"/>
<text x="0" y="-4" class="key tap">^</text>
</g>
<g transform="translate(630, 38)" class="key keypos-7">
<rect rx="6" ry="6" x="-28" y="-28" width="56" height="56" class="key side"/>
<rect rx="4" ry="4" x="-22" y="-26" width="44" height="44" class="key"/>
<text x="0" y="-4" class="key tap">&amp;</text>
</g>
<g transform="translate(690, 30)" class="key keypos-8">
<rect rx="6" ry="6" x="-28" y="-28" width="56" height="56" class="key side"/>
<rect rx="4" ry="4" x="-22" y="-26" width="44" height="44" class="key"/>
<text x="0" y="-4" class="key tap">*</text>
</g>
<g transform="translate(750, 38)" class="key keypos-9">
<rect rx="6" ry="6" x="-28" y="-28" width="56" height="56" class="key side"/>
<rect rx="4" ry="4" x="-22" y="-26" width="44" height="44" class="key"/>
<text x="0" y="-4" class="key tap">(</text>
</g>
<g transform="translate(810, 52)" class="key keypos-10">
<rect rx="6" ry="6" x="-28" y="-28" width="56" height="56" class="key side"/>
<rect rx="4" ry="4" x="-22" y="-26" width="44" height="44" class="key"/>
<text x="0" y="-4" class="key tap">)</text>
</g>
<g transform="translate(870, 52)" class="key keypos-11">
<rect rx="6" ry="6" x="-28" y="-28" width="56" height="56" class="key side"/>
<rect rx="4" ry="4" x="-22" y="-26" width="44" height="44" class="key"/>
<use href="#mdi:keyboard-backspace" xlink:href="#mdi:keyboard-backspace" x="-9" y="-13" height="18" width="18.0" class="key tap glyph mdi:keyboard-backspace"/>
</g>
<g transform="translate(30, 112)" class="key keypos-12">
<rect rx="6" ry="6" x="-28" y="-28" width="56" height="56" class="key side"/>
<rect rx="4" ry="4" x="-22" y="-26" width="44" height="44" class="key"/>
<use href="#mdi:apple-keyboard-control" xlink:href="#mdi:apple-keyboard-control" x="-9" y="-13" height="18" width="18.0" class="key tap glyph mdi:apple-keyboard-control"/>
</g>
<g transform="translate(90, 112)" class="key keypos-13">
<rect rx="6" ry="6" x="-28" y="-28" width="56" height="56" class="key side"/>
<rect rx="4" ry="4" x="-22" y="-26" width="44" height="44" class="key"/>
</g>
<g transform="translate(150, 98)" class="key keypos-14">
<rect rx="6" ry="6" x="-28" y="-28" width="56" height="56" class="key side"/>
<rect rx="4" ry="4" x="-22" y="-26" width="44" height="44" class="key"/>
</g>
<g transform="translate(210, 90)" class="key keypos-15">
<rect rx="6" ry="6" x="-28" y="-28" width="56" height="56" class="key side"/>
<rect rx="4" ry="4" x="-22" y="-26" width="44" height="44" class="key"/>
</g>
<g transform="translate(270, 98)" class="key keypos-16">
<rect rx="6" ry="6" x="-28" y="-28" width="56" height="56" class="key side"/>
<rect rx="4" ry="4" x="-22" y="-26" width="44" height="44" class="key"/>
</g>
<g transform="translate(330, 105)" class="key keypos-17">
<rect rx="6" ry="6" x="-28" y="-28" width="56" height="56" class="key side"/>
<rect rx="4" ry="4" x="-22" y="-26" width="44" height="44" class="key"/>
</g>
<g transform="translate(570, 105)" class="key keypos-18">
<rect rx="6" ry="6" x="-28" y="-28" width="56" height="56" class="key side"/>
<rect rx="4" ry="4" x="-22" y="-26" width="44" height="44" class="key"/>
<text x="0" y="-4" class="key tap">-</text>
</g>
<g transform="translate(630, 98)" class="key keypos-19">
<rect rx="6" ry="6" x="-28" y="-28" width="56" height="56" class="key side"/>
<rect rx="4" ry="4" x="-22" y="-26" width="44" height="44" class="key"/>
<text x="0" y="-4" class="key tap">=</text>
</g>
<g transform="translate(690, 90)" class="key keypos-20">
<rect rx="6" ry="6" x="-28" y="-28" width="56" height="56" class="key side"/>
<rect rx="4" ry="4" x="-22" y="-26" width="44" height="44" class="key"/>
<text x="0" y="-4" class="key tap">[</text>
</g>
<g transform="translate(750, 98)" class="key keypos-21">
<rect rx="6" ry="6" x="-28" y="-28" width="56" height="56" class="key side"/>
<rect rx="4" ry="4" x="-22" y="-26" width="44" height="44" class="key"/>
<text x="0" y="-4" class="key tap">]</text>
</g>
<g transform="translate(810, 112)" class="key keypos-22">
<rect rx="6" ry="6" x="-28" y="-28" width="56" height="56" class="key side"/>
<rect rx="4" ry="4" x="-22" y="-26" width="44" height="44" class="key"/>
<text x="0" y="-4" class="key tap">\</text>
</g>
<g transform="translate(870, 112)" class="key keypos-23">
<rect rx="6" ry="6" x="-28" y="-28" width="56" height="56" class="key side"/>
<rect rx="4" ry="4" x="-22" y="-26" width="44" height="44" class="key"/>
<text x="0" y="-4" class="key tap">`</text>
</g>
<g transform="translate(30, 172)" class="key keypos-24">
<rect rx="6" ry="6" x="-28" y="-28" width="56" height="56" class="key side"/>
<rect rx="4" ry="4" x="-22" y="-26" width="44" height="44" class="key"/>
<use href="#mdi:apple-keyboard-shift" xlink:href="#mdi:apple-keyboard-shift" x="-9" y="-13" height="18" width="18.0" class="key tap glyph mdi:apple-keyboard-shift"/>
</g>
<g transform="translate(90, 172)" class="key keypos-25">
<rect rx="6" ry="6" x="-28" y="-28" width="56" height="56" class="key side"/>
<rect rx="4" ry="4" x="-22" y="-26" width="44" height="44" class="key"/>
</g>
<g transform="translate(150, 158)" class="key keypos-26">
<rect rx="6" ry="6" x="-28" y="-28" width="56" height="56" class="key side"/>
<rect rx="4" ry="4" x="-22" y="-26" width="44" height="44" class="key"/>
</g>
<g transform="translate(210, 150)" class="key keypos-27">
<rect rx="6" ry="6" x="-28" y="-28" width="56" height="56" class="key side"/>
<rect rx="4" ry="4" x="-22" y="-26" width="44" height="44" class="key"/>
</g>
<g transform="translate(270, 158)" class="key keypos-28">
<rect rx="6" ry="6" x="-28" y="-28" width="56" height="56" class="key side"/>
<rect rx="4" ry="4" x="-22" y="-26" width="44" height="44" class="key"/>
</g>
<g transform="translate(330, 165)" class="key keypos-29">
<rect rx="6" ry="6" x="-28" y="-28" width="56" height="56" class="key side"/>
<rect rx="4" ry="4" x="-22" y="-26" width="44" height="44" class="key"/>
</g>
<g transform="translate(570, 165)" class="key keypos-30">
<rect rx="6" ry="6" x="-28" y="-28" width="56" height="56" class="key side"/>
<rect rx="4" ry="4" x="-22" y="-26" width="44" height="44" class="key"/>
<text x="0" y="-4" class="key tap">_</text>
</g>
<g transform="translate(630, 158)" class="key keypos-31">
<rect rx="6" ry="6" x="-28" y="-28" width="56" height="56" class="key side"/>
<rect rx="4" ry="4" x="-22" y="-26" width="44" height="44" class="key"/>
<text x="0" y="-4" class="key tap">+</text>
</g>
<g transform="translate(690, 150)" class="key keypos-32">
<rect rx="6" ry="6" x="-28" y="-28" width="56" height="56" class="key side"/>
<rect rx="4" ry="4" x="-22" y="-26" width="44" height="44" class="key"/>
<text x="0" y="-4" class="key tap">{</text>
</g>
<g transform="translate(750, 158)" class="key keypos-33">
<rect rx="6" ry="6" x="-28" y="-28" width="56" height="56" class="key side"/>
<rect rx="4" ry="4" x="-22" y="-26" width="44" height="44" class="key"/>
<text x="0" y="-4" class="key tap">}</text>
</g>
<g transform="translate(810, 172)" class="key keypos-34">
<rect rx="6" ry="6" x="-28" y="-28" width="56" height="56" class="key side"/>
<rect rx="4" ry="4" x="-22" y="-26" width="44" height="44" class="key"/>
<text x="0" y="-4" class="key tap">|</text>
</g>
<g transform="translate(870, 172)" class="key keypos-35">
<rect rx="6" ry="6" x="-28" y="-28" width="56" height="56" class="key side"/>
<rect rx="4" ry="4" x="-22" y="-26" width="44" height="44" class="key"/>
<text x="0" y="-4" class="key tap">~</text>
</g>
<g transform="translate(240, 219)" class="key keypos-36">
<rect rx="6" ry="6" x="-28" y="-28" width="56" height="56" class="key side"/>
<rect rx="4" ry="4" x="-22" y="-26" width="44" height="44" class="key"/>
<text x="0" y="-4" class="key tap">LGUI</text>
</g>
<g transform="translate(306, 228) rotate(15.0)" class="key keypos-37">
<rect rx="6" ry="6" x="-28" y="-28" width="56" height="56" class="key side"/>
<rect rx="4" ry="4" x="-22" y="-26" width="44" height="44" class="key"/>
<a href="#L3">
<text x="0" y="-4" class="key tap layer-activator">L3</text>
</a></g>
<g transform="translate(376, 240) rotate(30.0)" class="key space keypos-38">
<rect rx="6" ry="6" x="-28" y="-43" width="56" height="86" class="key space side"/>
<rect rx="4" ry="4" x="-22" y="-41" width="44" height="74" class="key space"/>
<use href="#mdi:keyboard-space" xlink:href="#mdi:keyboard-space" x="-9" y="-13" height="18" width="18.0" class="key space tap glyph mdi:keyboard-space"/>
</g>
<g transform="translate(524, 240) rotate(-30.0)" class="key enter keypos-39">
<rect rx="6" ry="6" x="-28" y="-43" width="56" height="86" class="key enter side"/>
<rect rx="4" ry="4" x="-22" y="-41" width="44" height="74" class="key enter"/>
<use href="#mdi:keyboard-return" xlink:href="#mdi:keyboard-return" x="-9" y="-13" height="18" width="18.0" class="key enter tap glyph mdi:keyboard-return"/>
</g>
<g transform="translate(594, 228) rotate(-15.0)" class="key held keypos-40">
<rect rx="6" ry="6" x="-28" y="-28" width="56" height="56" class="key held side"/>
<rect rx="4" ry="4" x="-22" y="-26" width="44" height="44" class="key held"/>
</g>
<g transform="translate(660, 219)" class="key keypos-41">
<rect rx="6" ry="6" x="-28" y="-28" width="56" height="56" class="key side"/>
<rect rx="4" ry="4" x="-22" y="-26" width="44" height="44" class="key"/>
<text x="0" y="-4" class="key tap">RALT</text>
</g>
</g>
</g>
<g transform="translate(30, 1051)" class="layer-L3">
<text x="0" y="28" class="label" id="L3">L3</text>
<g transform="translate(0, 56)">
<g transform="translate(30, 52)" class="key keypos-0">
<rect rx="6" ry="6" x="-28" y="-28" width="56" height="56" class="key side"/>
<rect rx="4" ry="4" x="-22" y="-26" width="44" height="44" class="key"/>
<text x="0" y="-4" class="key tap">
<tspan x="0" dy="-0.6em">QK</tspan><tspan x="0" dy="1.2em">BOOT</tspan>
</text>
</g>
<g transform="translate(90, 52)" class="key keypos-1">
<rect rx="6" ry="6" x="-28" y="-28" width="56" height="56" class="key side"/>
<rect rx="4" ry="4" x="-22" y="-26" width="44" height="44" class="key"/>
</g>
<g transform="translate(150, 38)" class="key keypos-2">
<rect rx="6" ry="6" x="-28" y="-28" width="56" height="56" class="key side"/>
<rect rx="4" ry="4" x="-22" y="-26" width="44" height="44" class="key"/>
</g>
<g transform="translate(210, 30)" class="key keypos-3">
<rect rx="6" ry="6" x="-28" y="-28" width="56" height="56" class="key side"/>
<rect rx="4" ry="4" x="-22" y="-26" width="44" height="44" class="key"/>
</g>
<g transform="translate(270, 38)" class="key keypos-4">
<rect rx="6" ry="6" x="-28" y="-28" width="56" height="56" class="key side"/>
<rect rx="4" ry="4" x="-22" y="-26" width="44" height="44" class="key"/>
</g>
<g transform="translate(330, 45)" class="key keypos-5">
<rect rx="6" ry="6" x="-28" y="-28" width="56" height="56" class="key side"/>
<rect rx="4" ry="4" x="-22" y="-26" width="44" height="44" class="key"/>
</g>
<g transform="translate(570, 45)" class="key keypos-6">
<rect rx="6" ry="6" x="-28" y="-28" width="56" height="56" class="key side"/>
<rect rx="4" ry="4" x="-22" y="-26" width="44" height="44" class="key"/>
</g>
<g transform="translate(630, 38)" class="key keypos-7">
<rect rx="6" ry="6" x="-28" y="-28" width="56" height="56" class="key side"/>
<rect rx="4" ry="4" x="-22" y="-26" width="44" height="44" class="key"/>
</g>
<g transform="translate(690, 30)" class="key keypos-8">
<rect rx="6" ry="6" x="-28" y="-28" width="56" height="56" class="key side"/>
<rect rx="4" ry="4" x="-22" y="-26" width="44" height="44" class="key"/>
</g>
<g transform="translate(750, 38)" class="key keypos-9">
<rect rx="6" ry="6" x="-28" y="-28" width="56" height="56" class="key side"/>
<rect rx="4" ry="4" x="-22" y="-26" width="44" height="44" class="key"/>
</g>
<g transform="translate(810, 52)" class="key keypos-10">
<rect rx="6" ry="6" x="-28" y="-28" width="56" height="56" class="key side"/>
<rect rx="4" ry="4" x="-22" y="-26" width="44" height="44" class="key"/>
</g>
<g transform="translate(870, 52)" class="key keypos-11">
<rect rx="6" ry="6" x="-28" y="-28" width="56" height="56" class="key side"/>
<rect rx="4" ry="4" x="-22" y="-26" width="44" height="44" class="key"/>
</g>
<g transform="translate(30, 112)" class="key keypos-12">
<rect rx="6" ry="6" x="-28" y="-28" width="56" height="56" class="key side"/>
<rect rx="4" ry="4" x="-22" y="-26" width="44" height="44" class="key"/>
<text x="0" y="-4" class="key tap">
<tspan x="0" dy="-0.6em">RM</tspan><tspan x="0" dy="1.2em">TOGG</tspan>
</text>
</g>
<g transform="translate(90, 112)" class="key keypos-13">
<rect rx="6" ry="6" x="-28" y="-28" width="56" height="56" class="key side"/>
<rect rx="4" ry="4" x="-22" y="-26" width="44" height="44" class="key"/>
<text x="0" y="-4" class="key tap">
<tspan x="0" dy="-0.6em">RM</tspan><tspan x="0" dy="1.2em">HUEU</tspan>
</text>
</g>
<g transform="translate(150, 98)" class="key keypos-14">
<rect rx="6" ry="6" x="-28" y="-28" width="56" height="56" class="key side"/>
<rect rx="4" ry="4" x="-22" y="-26" width="44" height="44" class="key"/>
<text x="0" y="-4" class="key tap">
<tspan x="0" dy="-0.6em">RM</tspan><tspan x="0" dy="1.2em">SATU</tspan>
</text>
</g>
<g transform="translate(210, 90)" class="key keypos-15">
<rect rx="6" ry="6" x="-28" y="-28" width="56" height="56" class="key side"/>
<rect rx="4" ry="4" x="-22" y="-26" width="44" height="44" class="key"/>
<text x="0" y="-4" class="key tap">
<tspan x="0" dy="-0.6em">RM</tspan><tspan x="0" dy="1.2em">VALU</tspan>
</text>
</g>
<g transform="translate(270, 98)" class="key keypos-16">
<rect rx="6" ry="6" x="-28" y="-28" width="56" height="56" class="key side"/>
<rect rx="4" ry="4" x="-22" y="-26" width="44" height="44" class="key"/>
</g>
<g transform="translate(330, 105)" class="key keypos-17">
<rect rx="6" ry="6" x="-28" y="-28" width="56" height="56" class="key side"/>
<rect rx="4" ry="4" x="-22" y="-26" width="44" height="44" class="key"/>
</g>
<g transform="translate(570, 105)" class="key keypos-18">
<rect rx="6" ry="6" x="-28" y="-28" width="56" height="56" class="key side"/>
<rect rx="4" ry="4" x="-22" y="-26" width="44" height="44" class="key"/>
</g>
<g transform="translate(630, 98)" class="key keypos-19">
<rect rx="6" ry="6" x="-28" y="-28" width="56" height="56" class="key side"/>
<rect rx="4" ry="4" x="-22" y="-26" width="44" height="44" class="key"/>
</g>
<g transform="translate(690, 90)" class="key keypos-20">
<rect rx="6" ry="6" x="-28" y="-28" width="56" height="56" class="key side"/>
<rect rx="4" ry="4" x="-22" y="-26" width="44" height="44" class="key"/>
</g>
<g transform="translate(750, 98)" class="key keypos-21">
<rect rx="6" ry="6" x="-28" y="-28" width="56" height="56" class="key side"/>
<rect rx="4" ry="4" x="-22" y="-26" width="44" height="44" class="key"/>
</g>
<g transform="translate(810, 112)" class="key keypos-22">
<rect rx="6" ry="6" x="-28" y="-28" width="56" height="56" class="key side"/>
<rect rx="4" ry="4" x="-22" y="-26" width="44" height="44" class="key"/>
</g>
<g transform="translate(870, 112)" class="key keypos-23">
<rect rx="6" ry="6" x="-28" y="-28" width="56" height="56" class="key side"/>
<rect rx="4" ry="4" x="-22" y="-26" width="44" height="44" class="key"/>
</g>
<g transform="translate(30, 172)" class="key keypos-24">
<rect rx="6" ry="6" x="-28" y="-28" width="56" height="56" class="key side"/>
<rect rx="4" ry="4" x="-22" y="-26" width="44" height="44" class="key"/>
<text x="0" y="-4" class="key tap">
<tspan x="0" dy="-0.6em">RM</tspan><tspan x="0" dy="1.2em">NEXT</tspan>
</text>
</g>
<g transform="translate(90, 172)" class="key keypos-25">
<rect rx="6" ry="6" x="-28" y="-28" width="56" height="56" class="key side"/>
<rect rx="4" ry="4" x="-22" y="-26" width="44" height="44" class="key"/>
<text x="0" y="-4" class="key tap">
<tspan x="0" dy="-0.6em">RM</tspan><tspan x="0" dy="1.2em">HUED</tspan>
</text>
</g>
<g transform="translate(150, 158)" class="key keypos-26">
<rect rx="6" ry="6" x="-28" y="-28" width="56" height="56" class="key side"/>
<rect rx="4" ry="4" x="-22" y="-26" width="44" height="44" class="key"/>
<text x="0" y="-4" class="key tap">
<tspan x="0" dy="-0.6em">RM</tspan><tspan x="0" dy="1.2em">SATD</tspan>
</text>
</g>
<g transform="translate(210, 150)" class="key keypos-27">
<rect rx="6" ry="6" x="-28" y="-28" width="56" height="56" class="key side"/>
<rect rx="4" ry="4" x="-22" y="-26" width="44" height="44" class="key"/>
<text x="0" y="-4" class="key tap">
<tspan x="0" dy="-0.6em">RM</tspan><tspan x="0" dy="1.2em">VALD</tspan>
</text>
</g>
<g transform="translate(270, 158)" class="key keypos-28">
<rect rx="6" ry="6" x="-28" y="-28" width="56" height="56" class="key side"/>
<rect rx="4" ry="4" x="-22" y="-26" width="44" height="44" class="key"/>
</g>
<g transform="translate(330, 165)" class="key keypos-29">
<rect rx="6" ry="6" x="-28" y="-28" width="56" height="56" class="key side"/>
<rect rx="4" ry="4" x="-22" y="-26" width="44" height="44" class="key"/>
</g>
<g transform="translate(570, 165)" class="key keypos-30">
<rect rx="6" ry="6" x="-28" y="-28" width="56" height="56" class="key side"/>
<rect rx="4" ry="4" x="-22" y="-26" width="44" height="44" class="key"/>
</g>
<g transform="translate(630, 158)" class="key keypos-31">
<rect rx="6" ry="6" x="-28" y="-28" width="56" height="56" class="key side"/>
<rect rx="4" ry="4" x="-22" y="-26" width="44" height="44" class="key"/>
</g>
<g transform="translate(690, 150)" class="key keypos-32">
<rect rx="6" ry="6" x="-28" y="-28" width="56" height="56" class="key side"/>
<rect rx="4" ry="4" x="-22" y="-26" width="44" height="44" class="key"/>
</g>
<g transform="translate(750, 158)" class="key keypos-33">
<rect rx="6" ry="6" x="-28" y="-28" width="56" height="56" class="key side"/>
<rect rx="4" ry="4" x="-22" y="-26" width="44" height="44" class="key"/>
</g>
<g transform="translate(810, 172)" class="key keypos-34">
<rect rx="6" ry="6" x="-28" y="-28" width="56" height="56" class="key side"/>
<rect rx="4" ry="4" x="-22" y="-26" width="44" height="44" class="key"/>
</g>
<g transform="translate(870, 172)" class="key keypos-35">
<rect rx="6" ry="6" x="-28" y="-28" width="56" height="56" class="key side"/>
<rect rx="4" ry="4" x="-22" y="-26" width="44" height="44" class="key"/>
</g>
<g transform="translate(240, 219)" class="key keypos-36">
<rect rx="6" ry="6" x="-28" y="-28" width="56" height="56" class="key side"/>
<rect rx="4" ry="4" x="-22" y="-26" width="44" height="44" class="key"/>
<text x="0" y="-4" class="key tap">LGUI</text>
</g>
<g transform="translate(306, 228) rotate(15.0)" class="key held keypos-37">
<rect rx="6" ry="6" x="-28" y="-28" width="56" height="56" class="key held side"/>
<rect rx="4" ry="4" x="-22" y="-26" width="44" height="44" class="key held"/>
</g>
<g transform="translate(376, 240) rotate(30.0)" class="key space keypos-38">
<rect rx="6" ry="6" x="-28" y="-43" width="56" height="86" class="key space side"/>
<rect rx="4" ry="4" x="-22" y="-41" width="44" height="74" class="key space"/>
<use href="#mdi:keyboard-space" xlink:href="#mdi:keyboard-space" x="-9" y="-13" height="18" width="18.0" class="key space tap glyph mdi:keyboard-space"/>
</g>
<g transform="translate(524, 240) rotate(-30.0)" class="key enter keypos-39">
<rect rx="6" ry="6" x="-28" y="-43" width="56" height="86" class="key enter side"/>
<rect rx="4" ry="4" x="-22" y="-41" width="44" height="74" class="key enter"/>
<use href="#mdi:keyboard-return" xlink:href="#mdi:keyboard-return" x="-9" y="-13" height="18" width="18.0" class="key enter tap glyph mdi:keyboard-return"/>
</g>
<g transform="translate(594, 228) rotate(-15.0)" class="key held keypos-40">
<rect rx="6" ry="6" x="-28" y="-28" width="56" height="56" class="key held side"/>
<rect rx="4" ry="4" x="-22" y="-26" width="44" height="44" class="key held"/>
</g>
<g transform="translate(660, 219)" class="key keypos-41">
<rect rx="6" ry="6" x="-28" y="-28" width="56" height="56" class="key side"/>
<rect rx="4" ry="4" x="-22" y="-26" width="44" height="44" class="key"/>
<text x="0" y="-4" class="key tap">RALT</text>
</g>
</g>
</g>
<text x="930.0" y="1429.0" class="footer">Created by haunt98</text></svg>
