<svg width="240" height="528" viewBox="0 0 240 528" class="keymap" xmlns="http://www.w3.org/2000/svg" xmlns:xlink="http://www.w3.org/1999/xlink">
<defs>/* start glyphs */
<svg id="mdi:chevron-down">
<svg xmlns="http://www.w3.org/2000/svg" id="mdi-chevron-down" viewBox="0 0 24 24"><path d="M7.41,8.58L12,13.17L16.59,8.58L18,10L12,16L6,10L7.41,8.58Z" /></svg>
</svg>
<svg id="mdi:chevron-up">
<svg xmlns="http://www.w3.org/2000/svg" id="mdi-chevron-up" viewBox="0 0 24 24"><path d="M7.41,15.41L12,10.83L16.59,15.41L18,14L12,8L6,14L7.41,15.41Z" /></svg>
</svg>
<svg id="mdi:keyboard-return">
<svg xmlns="http://www.w3.org/2000/svg" id="mdi-keyboard-return" viewBox="0 0 24 24"><path d="M19,7V11H5.83L9.41,7.41L8,6L2,12L8,18L9.41,16.58L5.83,13H21V7H19Z" /></svg>
</svg>
<svg id="mdi:numeric-1-box-outline">
<svg xmlns="http://www.w3.org/2000/svg" id="mdi-numeric-1-box-outline" viewBox="0 0 24 24"><path d="M19,19H5V5H19M19,3H5A2,2 0 0,0 3,5V19A2,2 0 0,0 5,21H19A2,2 0 0,0 21,19V5A2,2 0 0,0 19,3M12,17H14V7H10V9H12" /></svg>
</svg>
<svg id="mdi:transfer-down">
<svg xmlns="http://www.w3.org/2000/svg" id="mdi-transfer-down" viewBox="0 0 24 24"><path d="M16,3V5H8V3H16M16,7V9H8V7H16M16,11V13H8V11H16M5,15H19L12,22L5,15Z" /></svg>
</svg>
</defs>/* end glyphs */
<style>/* inherit to force styles through use tags */
svg path {
    fill: inherit;
}

/* font and background color specifications */
svg.keymap {
    font-family: SFMono-Regular,Consolas,Liberation Mono,Menlo,monospace;
    font-size: 14px;
    font-kerning: normal;
    text-rendering: optimizeLegibility;
    fill: #24292e;
}

/* default key styling */
rect.key {
    fill: #f6f8fa;
}

rect.key, rect.combo {
    stroke: #c9cccf;
    stroke-width: 1;
}

/* default key side styling, only used is draw_key_sides is set */
rect.side {
    filter: brightness(90%);
}

/* color accent for combo boxes */
rect.combo, rect.combo-separate {
    fill: #cdf;
}

/* color accent for held keys */
rect.held, rect.combo.held {
    fill: #fdd;
}

/* color accent for ghost (optional) keys */
rect.ghost, rect.combo.ghost {
    stroke-dasharray: 4, 4;
    stroke-width: 2;
}

text {
    text-anchor: middle;
    dominant-baseline: middle;
}

/* styling for layer labels */
text.label {
    font-weight: bold;
    text-anchor: start;
    stroke: white;
    stroke-width: 4;
    paint-order: stroke;
}

/* styling for optional footer */
text.footer {
    text-anchor: end;
    dominant-baseline: auto;
    stroke: white;
    stroke-width: 4;
    paint-order: stroke;
}

/* styling for combo tap, and key non-tap label text */
text.combo, text.hold, text.shifted, text.left, text.right {
    font-size: 11px;
}

text.hold {
    text-anchor: middle;
    dominant-baseline: auto;
}

text.shifted {
    text-anchor: middle;
    dominant-baseline: hanging;
}

text.left {
    text-anchor: start;
}

text.right {
    text-anchor: end;
}

text.layer-activator {
    text-decoration: underline;
}

/* styling for hold/shifted label text in combo box */
text.combo.hold, text.combo.shifted, text.combo.left, text.combo.right {
    font-size: 8px;
}

/* lighter symbol for transparent keys */
text.trans {
    fill: #7b7e81;
}

/* styling for combo dendrons */
path.combo {
    stroke-width: 1;
    stroke: gray;
    fill: none;
}

/* Start Tabler Icons Cleanup */
/* cannot use height/width with glyphs */
.icon-tabler > path {
    fill: inherit;
    stroke: inherit;
    stroke-width: 2;
}
/* hide tabler's default box */
.icon-tabler > path[stroke="none"][fill="none"] {
    visibility: hidden;
}
/* End Tabler Icons Cleanup */

svg.keymap {
  font-family: Iosevka Pacman, monospace;
  font-size: 14px;
}
text.label, text.footer {
  font-size: 16px;
}
text.hold {
  font-size: 12px;
}
rect.held, rect.enter, rect.space, rect.arrow {
  fill: rgb(255, 205, 210);
}
rect.esc, rect.vim {
  fill: rgb(200, 230, 201);
}
</style>
<g transform="translate(30, 0)" class="layer-L0">
<text x="0" y="28" class="label" id="L0">L0</text>
<g transform="translate(0, 56)">
<g transform="translate(30, 30)" class="key keypos-0">
<rect rx="6" ry="6" x="-28" y="-28" width="56" height="56" class="key side"/>
<rect rx="4" ry="4" x="-22" y="-26" width="44" height="44" class="key"/>
</g>
<g transform="translate(150, 30)" class="key keypos-1">
<rect rx="6" ry="6" x="-28" y="-28" width="56" height="56" class="key side"/>
<rect rx="4" ry="4" x="-22" y="-26" width="44" height="44" class="key"/>
</g>
<g transform="translate(30, 90)" class="key keypos-2">
<rect rx="6" ry="6" x="-28" y="-28" width="56" height="56" class="key side"/>
<rect rx="4" ry="4" x="-22" y="-26" width="44" height="44" class="key"/>
<text x="0" y="-4" class="key tap">ESC</text>
</g>
<g transform="translate(90, 90)" class="key arrow keypos-3">
<rect rx="6" ry="6" x="-28" y="-28" width="56" height="56" class="key arrow side"/>
<rect rx="4" ry="4" x="-22" y="-26" width="44" height="44" class="key arrow"/>
<use href="#mdi:chevron-up" xlink:href="#mdi:chevron-up" x="-9" y="-13" height="18" width="18.0" class="key arrow tap glyph mdi:chevron-up"/>
</g>
<g transform="translate(150, 90)" class="key keypos-4">
<rect rx="6" ry="6" x="-28" y="-28" width="56" height="56" class="key side"/>
<rect rx="4" ry="4" x="-22" y="-26" width="44" height="44" class="key"/>
<text x="0" y="-4" class="key tap">F12</text>
</g>
<g transform="translate(30, 150)" class="key keypos-5">
<rect rx="6" ry="6" x="-28" y="-28" width="56" height="56" class="key side"/>
<rect rx="4" ry="4" x="-22" y="-26" width="44" height="44" class="key"/>
<use href="#mdi:numeric-1-box-outline" xlink:href="#mdi:numeric-1-box-outline" x="-9" y="-13" height="18" width="18.0" class="key tap glyph mdi:numeric-1-box-outline"/>
</g>
<g transform="translate(90, 150)" class="key arrow keypos-6">
<rect rx="6" ry="6" x="-28" y="-28" width="56" height="56" class="key arrow side"/>
<rect rx="4" ry="4" x="-22" y="-26" width="44" height="44" class="key arrow"/>
<use href="#mdi:chevron-down" xlink:href="#mdi:chevron-down" x="-9" y="-13" height="18" width="18.0" class="key arrow tap glyph mdi:chevron-down"/>
</g>
<g transform="translate(150, 150)" class="key enter keypos-7">
<rect rx="6" ry="6" x="-28" y="-28" width="56" height="56" class="key enter side"/>
<rect rx="4" ry="4" x="-22" y="-26" width="44" height="44" class="key enter"/>
<use href="#mdi:keyboard-return" xlink:href="#mdi:keyboard-return" x="-9" y="-13" height="18" width="18.0" class="key enter tap glyph mdi:keyboard-return"/>
</g>
</g>
</g>
<g transform="translate(30, 236)" class="layer-L1">
<text x="0" y="28" class="label" id="L1">L1</text>
<g transform="translate(0, 56)">
<g transform="translate(30, 30)" class="key keypos-0">
<rect rx="6" ry="6" x="-28" y="-28" width="56" height="56" class="key side"/>
<rect rx="4" ry="4" x="-22" y="-26" width="44" height="44" class="key"/>
</g>
<g transform="translate(150, 30)" class="key keypos-1">
<rect rx="6" ry="6" x="-28" y="-28" width="56" height="56" class="key side"/>
<rect rx="4" ry="4" x="-22" y="-26" width="44" height="44" class="key"/>
</g>
<g transform="translate(30, 90)" class="key trans keypos-2">
<rect rx="6" ry="6" x="-28" y="-28" width="56" height="56" class="key trans side"/>
<rect rx="4" ry="4" x="-22" y="-26" width="44" height="44" class="key trans"/>
<use href="#mdi:transfer-down" xlink:href="#mdi:transfer-down" x="-9" y="-13" height="18" width="18.0" class="key trans tap glyph mdi:transfer-down"/>
</g>
<g transform="translate(90, 90)" class="key keypos-3">
<rect rx="6" ry="6" x="-28" y="-28" width="56" height="56" class="key side"/>
<rect rx="4" ry="4" x="-22" y="-26" width="44" height="44" class="key"/>
<text x="0" y="-4" class="key tap">PGUP</text>
</g>
<g transform="translate(150, 90)" class="key trans keypos-4">
<rect rx="6" ry="6" x="-28" y="-28" width="56" height="56" class="key trans side"/>
<rect rx="4" ry="4" x="-22" y="-26" width="44" height="44" class="key trans"/>
<use href="#mdi:transfer-down" xlink:href="#mdi:transfer-down" x="-9" y="-13" height="18" width="18.0" class="key trans tap glyph mdi:transfer-down"/>
</g>
<g transform="translate(30, 150)" class="key trans keypos-5">
<rect rx="6" ry="6" x="-28" y="-28" width="56" height="56" class="key trans side"/>
<rect rx="4" ry="4" x="-22" y="-26" width="44" height="44" class="key trans"/>
<use href="#mdi:transfer-down" xlink:href="#mdi:transfer-down" x="-9" y="-13" height="18" width="18.0" class="key trans tap glyph mdi:transfer-down"/>
</g>
<g transform="translate(90, 150)" class="key keypos-6">
<rect rx="6" ry="6" x="-28" y="-28" width="56" height="56" class="key side"/>
<rect rx="4" ry="4" x="-22" y="-26" width="44" height="44" class="key"/>
<text x="0" y="-4" class="key tap">PGDN</text>
</g>
<g transform="translate(150, 150)" class="key trans keypos-7">
<rect rx="6" ry="6" x="-28" y="-28" width="56" height="56" class="key trans side"/>
<rect rx="4" ry="4" x="-22" y="-26" width="44" height="44" class="key trans"/>
<use href="#mdi:transfer-down" xlink:href="#mdi:transfer-down" x="-9" y="-13" height="18" width="18.0" class="key trans tap glyph mdi:transfer-down"/>
</g>
</g>
</g>
<text x="210.0" y="500.0" class="footer">Created by haunt98</text></svg>
